New Zealands Got Talent S02E04 HDTV x264-FiHTV [MyTV]

Screenshots:
 
http://i.imgbox.com/adhGoXcM.png 
http://i.imgbox.com/adgYAL0L.png 
http://i.imgbox.com/aboZcFnh.png

NFO:

Format : MPEG-4
Format profile : Base Media
Codec ID : isom
File size : 326 MiB
Duration : 46mn 16s
Overall bit rate mode : Variable
Overall bit rate : 986 Kbps
Encoded date : UTC 2012-09-30 08:33:46
Tagged date : UTC 2012-09-30 08:33:46

Video
ID : 1
Format : AVC
Format/Info : Advanced Video Codec
Format profile : High@L3.1
Format settings, CABAC : Yes
Format settings, ReFrames : 5 frames
Codec ID : avc1
Codec ID/Info : Advanced Video Coding
Duration : 46mn 16s
Bit rate : 854 Kbps
Maximum bit rate : 3 575 Kbps
Width : 720 pixels
Height : 404 pixels
Display aspect ratio : 16:9
Frame rate mode : Constant
Frame rate : 25.000 fps
Color space : YUV
Chroma subsampling : 4:2:0
Bit depth : 8 bits
Scan type : Progressive
Bits/(Pixel*Frame) : 0.117
Stream size : 283 MiB (87%)
Writing library : x264 core 128 r2216 198a7ea
Encoding settings : cabac=1 / ref=5 / deblock=1:1:1 / analyse=0x3:0x133 / me=umh / subme=9 / psy=1 / psy_rd=1.00:0.00 / mixed_ref=1 / me_range=16 / chroma_me=1 / trellis=2 / 8x8dct=1 / cqm=0 / deadzone=21,11 / fast_pskip=1 / chroma_qp_offset=-2 / threads=18 / lookahead_threads=3 / sliced_threads=0 / nr=0 / decimate=1 / interlaced=0 / bluray_compat=0 / constrained_intra=0 / bframes=3 / b_pyramid=2 / b_adapt=2 / b_bias=0 / direct=3 / weightb=1 / open_gop=0 / weightp=2 / keyint=250 / keyint_min=25 / scenecut=40 / intra_refresh=0 / rc_lookahead=50 / rc=crf / mbtree=1 / crf=22.0 / qcomp=0.60 / qpmin=0 / qpmax=69 / qpstep=4 / ip_ratio=1.40 / aq=1:1.00
Encoded date : UTC 2012-09-30 07:43:10
Tagged date : UTC 2012-09-30 08:33:47
Matrix coefficients : BT.709

Audio
ID : 2
Format : AAC
Format/Info : Advanced Audio Codec
Format profile : LC
Codec ID : 40
Duration : 46mn 16s
Bit rate mode : Variable
Bit rate : 128 Kbps
Maximum bit rate : 147 Kbps
Channel(s) : 2 channels
Channel positions : Front: L R
Sampling rate : 48.0 KHz
Compression mode : Lossy
Delay relative to video : 80ms
Stream size : 42.4 MiB (13%)
Encoded date : UTC 2012-09-30 08:33:47
Tagged date : UTC 2012-09-30 08:33:47